<?xml version="1.0" encoding="UTF-8" standalone="no"?>
<svg xmlns="http://www.w3.org/2000/svg" viewBox="0 0 214 214" enable-background="new 0 0 214 214"><g><path fill="#fff" d="M91.8 81.8l2.1 1.3v7.5l-2.1 1.6h-4.1l-2-1.6v-7.5l2-1.3h4.1m-2.4 8.4h.9l.9-.3v-5.8l-.9-.3h-1l-.9.3v5.8l1 .3m2.4-9.4h-4.1c-.2 0-.4.1-.6.2l-2 1.3c-.3.2-.4.5-.4.8v7.5c0 .3.1.6.4.8l2 1.6c.2.1.4.2.6.2h4.1c.2 0 .4-.1.6-.2l2.1-1.6c.2-.2.4-.5.4-.8v-7.5c0-.3-.2-.7-.5-.8L92.3 81c-.1-.2-.3-.2-.5-.2zm-2.3 4h.7v4.4H89.4l.1-4.4zM136.3 86.4l1.9 1.2v7l-1.9 1.5h-3.8l-1.9-1.5v-7l1.9-1.2h3.8m-2.3 7.8h.8l.9-.3v-5.4l-.8-.3h-.9l-.9.3v5.4l.9.3m2.3-8.8h-3.8c-.2 0-.4.1-.6.2l-1.9 1.2c-.3.2-.4.5-.4.8v7c0 .3.1.6.4.8l1.9 1.5c.2.1.4.2.6.2h3.8c.2 0 .4-.1.6-.2l1.9-1.5c.2-.2.4-.5.4-.8v-7c0-.3-.2-.7-.5-.8l-1.9-1.2c-.1-.2-.3-.2-.5-.2zm-2.1 3.8h.6v4h-.5l-.1-4zM145.7 87.4l1.9 1.2v7l-1.9 1.5h-3.8l-1.9-1.5v-7l1.9-1.2h3.8m-2.3 7.8h.8l.9-.3v-5.4l-.8-.3h-.9l-.9.3v5.4l.9.3m2.3-8.8h-3.8c-.2 0-.4.1-.6.2l-1.9 1.2c-.3.2-.4.5-.4.8v7c0 .3.1.6.4.8l1.9 1.5c.2.1.4.2.6.2h3.8c.2 0 .4-.1.6-.2l1.9-1.5c.2-.2.4-.5.4-.8v-7c0-.3-.2-.7-.5-.8l-1.9-1.2c-.2-.2-.4-.2-.5-.2zm-2.2 3.9h.6v4h-.5l-.1-4zM151.5 86.7h5.7l1.9 1.2v7l-1.9 1.5h-5.7v-9.7m2.5 7.8h1.7l.9-.3v-5.4l-.8-.3h-1.7v6m-2.6-8.8c-.3 0-.5.1-.7.3-.2.2-.3.4-.3.7v9.7c0 .3.1.5.3.7.2.2.4.3.7.3h5.7c.2 0 .4-.1.6-.2l1.9-1.5c.2-.2.4-.5.4-.8v-7c0-.3-.2-.7-.5-.8l-1.9-1.2c-.2-.1-.3-.2-.5-.2h-5.7zm3.5 3.9h.6v4h-.6v-4zM83.2 82.6v10.1h-2.7v-3.9h-2.9v3.9h-2.7V82.6h2.7v3.9h2.9v-3.9h2.7m0-1h-2.7c-.6 0-1 .4-1 1v2.9h-.9v-2.9c0-.6-.4-1-1-1h-2.7c-.6 0-1 .4-1 1v10.1c0 .6.4 1 1 1h2.7c.6 0 1-.4 1-1v-2.9h.9v2.9c0 .6.4 1 1 1h2.7c.6 0 1-.4 1-1V82.6c0-.6-.4-1-1-1zM99 82.6v7.9h4.6v2.1h-7.3v-10H99m0-1h-2.7c-.6 0-1 .4-1 1v10.1c0 .6.4 1 1 1h7.3c.6 0 1-.4 1-1v-2.1c0-.6-.4-1-1-1H100v-6.9c0-.7-.5-1.1-1-1.1zM107.8 83v8h4.6v2.1h-7.3V83h2.7m0-1h-2.7c-.6 0-1 .4-1 1v10.1c0 .6.4 1 1 1h7.3c.6 0 1-.4 1-1V91c0-.6-.4-1-1-1h-3.6v-7c0-.5-.4-1-1-1zM113.8 83.4l1.4 3.4 1.2-3h2.7l-2.5 5.9v4.4h-2.8v-3.9l-2.8-6.8h2.8m5.4.4-5.4-1.4h-2.7c-.3 0-.6.2-.8.4-.2.3-.2.6-.1.9l2.8 6.7v3.7c0 .6.4 1 1 1h2.8c.6 0 1-.4 1-1v-4.2l2.4-5.7c.1-.1.1-.3.1-.4 0-.6-.4-1-1-1h-2.7c-.4 0-.8.2-.9.6l-.3.8-.5-1.2c-.3-.4-.7-.6-1.1-.6zM122.9 85.3l.6 2.8.7-2.6h1.3l.7 3.1.6-2.8h2.3l-2.1 9.5h-1l-1.2-3.8-1.1 3.9h-1.3l-2.2-10.1h2.7m6.2.5-6.2-1.5h-2.7c-.3 0-.6.1-.8.4-.2.2-.3.5-.2.8l2.2 10.1c.1.5.5.8 1 .8h1.3c.4 0 .8-.3 1-.7l.2-.8.2.7c.1.4.5.7.9.7h1c.5 0 .9-.3 1-.8l2.1-9.4v-.3c0-.6-.4-1-1-1h-2.3c-.2 0-.4 0-.5.1-.2-.3-.5-.4-.8-.4h-1.3c-.2 0-.4.1-.5.1-.3-.1-.5-.3-.8-.3z"></path><path clip-rule="evenodd" stroke="#fff" stroke-width="2" stroke-linecap="round" stroke-linejoin="round" stroke-miterlimit="10" d="M27.2 107c0 44 35.7 79.8 79.8 79.8 36.2 0 66.7-24.1 76.5-57.1h-2.3v1.3h-1.7v5.8h-2.6v-2.5h-.6v-1.8h-8v1.8h-3.7v2.5h-2.8v-10.2H158v7.2h-1.6V132h-5.8v1.8h-5v-3h-6.8v3h-6.1v-3H123v3.6h-6.4v2.4h-5.7v-1.7h-3.2v-7.9h-5.1v7.9h-3.8v-3.3h-4.9v3.3h-4.6v-3.3h-1.1v-1.9h-4.7v1.9H79v-2.1h-.8v2.1H76V127h-8.5V85.3h-2.6v-4.7H46.1v4.7h-2.6v47.1H42v4.4h-1.1V62.5c-8.6 12.7-13.7 28-13.7 44.5z" fill="none"></path><g clip-rule="evenodd" stroke="#fff" stroke-width="2" stroke-linecap="round" stroke-linejoin="round" stroke-miterlimit="10" fill="none"><path opacity=".5" d="M38.3 147.5c-.4-.6-.7-1.2-1.1-1.8.4.6.7 1.2 1.1 1.8zM41.3 152.2c.5.7.9 1.3 1.4 2-.5-.7-.9-1.3-1.4-2zM42 132.4h1.5v-15.5c-.9 0-1.8.1-2.7.1v19.8H42v-4.4zM38.9 148.5c.6.9 1.1 1.8 1.7 2.7-.5-.8-1.1-1.7-1.7-2.7zM33.7 138.4l1.2 2.7-1.2-2.7zM178 126.4c-6.8.3-4.8-4.5-13.6-10.8-8.8-6.3-12.2-.6-21.3-1.1-9.1-.6-18.5-4.5-28.7-10.8-10.2-6.3-13.6-4-21.9.3-7.4 3.8-14.7 6.8-25 9.6V127H76v4.8h2.1v-2.1h.9v2.1h4.5v-1.9h4.7v1.9h1.1v3.3h4.6v-3.3h4.9v3.3h3.8v-7.9h5.1v7.9h3.2v1.7h5.7v-2.4h6.4v-3.6h9.8v3h6.1v-3h6.8v3h5V132h5.8v1.8h1.6v-7.2h3.8v10.2h2.8v-2.5h3.7v-1.8h8v1.8h.6v2.5h2.6V131h1.7v-1.3h2.3c-3.1 10.4-8.2 20-15 28.1 7.3-8.9 12.8-19.4 15.7-30.9-1.6-.6-3.5-.7-6.3-.5zM35.7 142.7c.3.5.5 1 .8 1.5-.3-.5-.6-1-.8-1.5zM43.4 155l2.1 2.7c-.8-.9-1.5-1.8-2.1-2.7z"></path></g><g clip-rule="evenodd" stroke="#fff" stroke-width="2" stroke-linecap="round" stroke-linejoin="round" stroke-miterlimit="10" fill="none"><path opacity=".5" d="M31.2 131.9zM42 132.4h1.5V87.6c-1 .3-1.8.5-2.7.8v48.3H42v-4.3zM177.4 144.4c-.5.9-1 1.8-1.5 2.6.6-.8 1.1-1.7 1.5-2.6zM34.3 139.8c.1.1.1.3.2.4-.1-.1-.1-.2-.2-.4zM64.9 80.6v4.7h2.6V127H76v4.8h2.1v-2.1h.9v2.1h4.5v-1.9h4.7v1.9h1.1v3.3h4.6v-3.3h4.9v3.3h3.8v-7.9h5.1v7.9h3.2v1.7h5.7v-2.4h6.4v-3.6h9.8v3h6.1v-3h6.8v3h5V132h5.8v1.8h1.6v-7.2h3.8v10.2h2.8v-2.5h3.7v-1.8h8v1.8h.6v2.5h2.6V131h1.7v-1.3h2.3c-1.5 5.2-3.6 10.1-6 14.8 4.8-9 7.9-19.1 8.9-29.8-2.3-1.7-1.6-2.9-3.2-6.5-2-4.3-6.5-5.1-8.2-9.1-1.7-4-8-7.4-11.9-12.2-4-4.8-7.1-10.5-11.9-9.4-4.8 1.1-9.7 0-14.8-2-5.1-2-8.2-1.4-13.9.9-5.7 2.3-4.8-.6-11.1-3.1-6.3-2.6-5.7-2-12.5 0s-10.5-.3-17.1-.9c-6.5-.6-9.1 3.4-13.9 6.8-.9.4-1.9.9-3.1 1.4zM36.4 144.1c-.1-.1-.1-.2-.2-.4.1.1.1.3.2.4zM175.5 147.7c.1-.2.2-.3.3-.5 0 .2-.2.4-.3.5zM32.7 135.9c0 .1.1.2.1.3-.1-.1-.1-.2-.1-.3zM38.4 147.7z"></path></g></g></svg>
